HIERARCHY
ROOT hip
{
	OFFSET 0.000000 0.000000 0.000000 
	CHANNELS 6 Xposition Yposition Zposition Xrotation Zrotation Yrotation
	JOINT abdomen
	{
		OFFSET 0.000000 3.402643 0.000000 
		CHANNELS 3 Xrotation Zrotation Yrotation
		JOINT chest
		{
			OFFSET 0.000000 8.438565 -0.680529 
			CHANNELS 3 Xrotation Zrotation Yrotation
			JOINT neck
			{
				OFFSET 0.000000 10.207942 -0.272212 
				CHANNELS 3 Xrotation Zrotation Yrotation
				JOINT head
				{
					OFFSET 0.000000 3.130431 0.000000 
					CHANNELS 3 Xrotation Zrotation Yrotation
					End Site
					{
						OFFSET 0.000000 3.130435 0.000000 
					}
				}
			}
			JOINT lCollar
			{
				OFFSET 3.470700 6.669187 -0.816635 
				CHANNELS 3 Yrotation Zrotation Xrotation
				JOINT lShldr
				{
					OFFSET 3.198488 0.000000 0.000000 
					CHANNELS 3 Zrotation Yrotation Xrotation
					JOINT lForeArm
					{
						OFFSET 10.139888 0.000000 0.000000 
						CHANNELS 3 Yrotation Zrotation Xrotation
						JOINT lHand
						{
							OFFSET 8.370511 0.000000 0.000000 
							CHANNELS 3 Zrotation Yrotation Xrotation
							End Site
							{
								OFFSET 4.083176 0.000000 0.000000 
							}
						}
					}
				}
			}
			JOINT rCollar
			{
				OFFSET -3.470700 6.669187 -0.816635 
				CHANNELS 3 Yrotation Zrotation Xrotation
				JOINT rShldr
				{
					OFFSET -3.198488 0.000000 0.000000 
					CHANNELS 3 Zrotation Yrotation Xrotation
					JOINT rForeArm
					{
						OFFSET -10.139888 0.000000 0.000000 
						CHANNELS 3 Yrotation Zrotation Xrotation
						JOINT rHand
						{
							OFFSET -8.370511 0.000000 0.000000 
							CHANNELS 3 Zrotation Yrotation Xrotation
							End Site
							{
								OFFSET -4.083176 0.000000 0.000000 
							}
						}
					}
				}
			}
		}
	}
	JOINT lThigh
	{
		OFFSET 5.308129 -1.633274 1.361059 
		CHANNELS 3 Xrotation Zrotation Yrotation
		JOINT lShin
		{
			OFFSET -2.041588 -20.007561 0.000000 
			CHANNELS 3 Xrotation Zrotation Yrotation
			JOINT lFoot
			{
				OFFSET 0.000000 -19.190928 -1.224953 
				CHANNELS 3 Xrotation Yrotation Zrotation
				End Site
				{
					OFFSET 0.000000 -2.449906 4.627600 
				}
			}
		}
	}
	JOINT rThigh
	{
		OFFSET -5.308129 -1.633274 1.361059 
		CHANNELS 3 Xrotation Zrotation Yrotation
		JOINT rShin
		{
			OFFSET 2.041588 -20.007561 0.000000 
			CHANNELS 3 Xrotation Zrotation Yrotation
			JOINT rFoot
			{
				OFFSET 0.000000 -19.190928 -1.224953 
				CHANNELS 3 Xrotation Yrotation Zrotation
				End Site
				{
					OFFSET 0.000000 -2.449906 4.627600 
				}
			}
		}
	}
}
MOTION
Frames: 8
Frame Time: 0.033333
-38.201866 48.634056 56.425697 -3.020164 -2.369755 131.863174 0.000000 0.000000 0.000000 6.298436 7.096023 11.289023 -6.303574 11.145553 -4.266272 -9.866840 19.261364 -14.929224 9.373332 -2.846994 4.986200 -64.778969 19.304115 21.809694 -43.634937 -13.093472 39.685760 -8.562206 -2.878343 -2.928482 14.501381 25.000000 3.817595 39.833317 -8.110148 12.388588 45.867374 3.961471 10.068151 -5.976182 0.707361 -3.658610 -14.477684 10.982680 1.480358 -3.572138 -5.528043 -11.592280 17.798109 -1.825400 -11.507075 5.212780 -7.429372 -8.347606 20.873848 3.923010 -0.409002 -7.991124 -0.468143 6.510233 
-37.282955 48.532120 55.057407 -3.878654 -1.695329 130.632446 0.000000 0.000000 0.000000 6.572301 6.975797 11.252073 -6.599727 10.986521 -4.069699 -10.166793 19.679419 -14.878256 9.446465 -3.637048 5.242493 -64.626251 18.579224 23.352882 -42.546200 -13.339167 41.060711 -11.452450 -3.661653 -2.685769 14.488414 24.494820 4.079414 41.130329 -8.153532 12.904424 44.484100 4.156410 11.331201 -6.072613 1.581836 -3.691069 -13.677015 10.338195 1.899953 -3.532565 -5.413183 -2.832914 11.398217 -0.636312 -6.178194 7.680783 -7.017589 -7.940449 18.998411 3.529128 1.933334 -6.386073 -0.375810 6.842498 
-36.347439 48.422260 53.470280 -4.112185 -1.168859 128.687531 0.000000 0.000000 0.000000 7.045911 6.387350 11.335196 -6.788342 10.599860 -3.867932 -9.789135 19.663410 -14.673876 9.854743 -4.984292 5.753856 -64.086761 17.061972 24.593777 -41.503052 -13.833160 43.315689 -13.622132 -5.126860 -2.353539 14.030422 23.913513 4.772199 42.587322 -7.986273 12.848564 42.758518 4.355926 10.854351 -5.792193 0.435586 -3.639719 -12.152769 9.468298 1.369884 -1.834022 -4.067462 1.106127 6.307770 -0.134664 -2.406005 9.507252 -8.415124 -9.352187 19.061472 4.118964 6.091547 -4.390113 -0.254037 6.801755 
-35.463768 48.752350 52.078445 -2.549872 -1.639001 127.778030 0.000000 0.000000 0.000000 8.419392 4.028524 10.459628 -7.036818 8.583613 -4.418820 -10.319418 21.049555 -15.210588 9.329260 -8.355536 7.569733 -61.363224 13.118761 26.307215 -40.522839 -14.978148 43.953495 -13.071818 -5.366857 -2.364352 12.631082 23.573471 6.781842 43.153984 -6.824278 12.319657 41.039421 4.392742 11.197378 -6.172174 2.054853 -3.715518 -10.126733 8.085800 1.625842 -1.316459 -4.512596 2.125396 6.920536 -0.129171 -2.123119 10.692078 -10.809835 -10.827683 19.742785 3.591045 7.685821 0.053748 0.003137 7.936019 
-34.584946 48.929653 50.733189 -1.691619 -2.899129 126.774925 0.000000 0.000000 0.000000 9.125316 1.735579 9.458592 -7.642650 6.302639 -4.747606 -12.733830 21.032730 -15.985315 8.560313 -10.490944 8.701526 -58.755459 8.265782 28.275759 -41.635197 -15.875209 43.998722 -13.743470 -5.044111 -2.353852 12.039379 21.143988 7.977137 45.693008 -6.830325 12.313718 41.828457 4.324173 11.253723 -7.432397 2.304226 -3.792430 -8.727773 7.272973 2.616044 -0.732797 -6.086154 1.113281 5.334588 -0.034209 -0.780914 9.515409 -13.353223 -11.795647 22.289003 3.014872 9.415559 3.995354 0.311195 8.978531 
-33.807388 48.842323 49.340862 -2.786767 -2.896966 126.488434 0.000000 0.000000 0.000000 9.203015 1.638798 8.585961 -7.214509 5.374965 -4.912030 -15.075314 18.598776 -15.723420 6.980425 -8.062634 8.695072 -59.959873 2.834974 29.696980 -40.881680 -16.252022 44.240746 -13.183034 -4.179171 -2.512120 11.244135 18.543852 8.119448 50.012711 -7.954155 12.767286 43.194145 4.125994 10.651920 -8.326527 1.911387 -3.810080 -14.259844 7.505322 2.316682 12.291258 -5.330994 0.720660 2.890804 -0.031553 -1.149061 8.003342 -13.608165 -11.354036 24.800123 2.575666 9.783470 8.471685 0.804193 10.616688 
-33.008385 48.784939 47.873280 -2.514005 -3.326880 126.473862 0.000000 0.000000 0.000000 9.512545 0.751246 7.391623 -6.660034 4.504533 -5.044663 -14.531063 14.895487 -13.862720 5.598060 -8.154077 9.065997 -58.838303 -2.636831 29.522114 -39.970516 -16.110386 44.950718 -11.649667 -3.846657 -2.652217 9.882222 17.303352 8.642827 51.595490 -8.688587 14.210780 43.585949 4.390708 11.745114 -6.326493 1.721759 -3.714332 -13.683934 6.587812 2.443534 15.016161 -5.770848 -0.370421 -0.744650 -0.002439 -0.283642 6.891447 -15.621228 -12.513772 27.408691 2.379980 9.725965 13.574357 1.594878 13.288104 
-32.349583 48.839558 46.822117 -3.922619 -3.322294 125.471436 0.000000 0.000000 0.000000 9.835221 0.904480 6.826852 -6.691640 3.280472 -5.131930 -12.467527 13.753104 -13.249568 5.516911 -8.797678 9.358857 -56.765038 -9.033539 27.758993 -38.255127 -16.502350 43.796326 -5.613112 -2.189152 -3.138888 9.093152 18.315218 8.926637 50.701382 -8.916591 15.336174 44.419128 4.290264 14.188730 -5.571351 3.053137 -3.720875 -15.065369 7.918160 3.856500 19.421131 -6.341771 -0.387098 -3.012633 -0.002876 0.463011 4.665504 -14.750627 -10.664039 28.326063 1.159655 7.655021 19.781090 2.968571 16.848577 
